<?xml version="1.0" encoding="UTF-8" standalone="no"?>
<svg
   xmlns:dc="http://purl.org/dc/elements/1.1/"
   xmlns:cc="http://creativecommons.org/ns#"
   xmlns:rdf="http://www.w3.org/1999/02/22-rdf-syntax-ns#"
   xmlns:svg="http://www.w3.org/2000/svg"
   xmlns="http://www.w3.org/2000/svg"
   xmlns:sodipodi="http://sodipodi.sourceforge.net/DTD/sodipodi-0.dtd"
   xmlns:inkscape="http://www.inkscape.org/namespaces/inkscape"
   viewBox="0 0 24.000036 27.43"
   version="1.1"
   id="svg17"
   sodipodi:docname="4923080_discord_icon.svg"
   width="24.000036"
   height="27.43"
   inkscape:version="1.0.2-2 (e86c870879, 2021-01-15)">
  <metadata
     id="metadata21">
    <rdf:RDF>
      <cc:Work
         rdf:about="">
        <dc:format>image/svg+xml</dc:format>
        <dc:type
           rdf:resource="http://purl.org/dc/dcmitype/StillImage" />
      </cc:Work>
    </rdf:RDF>
  </metadata>
  <sodipodi:namedview
     pagecolor="#ffffff"
     bordercolor="#666666"
     borderopacity="1"
     objecttolerance="10"
     gridtolerance="10"
     guidetolerance="10"
     inkscape:pageopacity="0"
     inkscape:pageshadow="2"
     inkscape:window-width="1366"
     inkscape:window-height="705"
     id="namedview19"
     showgrid="false"
     inkscape:zoom="13.45"
     inkscape:cx="12.000018"
     inkscape:cy="12"
     inkscape:window-x="-8"
     inkscape:window-y="-8"
     inkscape:window-maximized="1"
     inkscape:current-layer="svg17" />
  <defs
     id="defs4">
    <style
       id="style2">.cls-1{fill:none;}</style>
  </defs>
  <title
     id="title6" />
  <g
     id="Discord"
     transform="translate(-7.9999822,-8)">
    <path
       class="cls-1"
       d="m 22.26,14.39 -0.19,0.22 a 9.16,9.16 0 0 1 3.42,1.74 11.22,11.22 0 0 0 -4.13,-1.35 11.59,11.59 0 0 0 -2.77,0 h -0.24 a 10.36,10.36 0 0 0 -3.11,0.86 c -0.51,0.24 -0.81,0.4 -0.81,0.4 A 9.27,9.27 0 0 1 18,14.56 l -0.14,-0.17 a 6.77,6.77 0 0 0 -3.85,1.44 18.34,18.34 0 0 0 -2,8 5,5 0 0 0 4.19,2.08 l 0.91,-1.14 a 4.27,4.27 0 0 1 -2.4,-1.62 c 0,0 0.14,0.1 0.39,0.24 h 0.05 l 0.13,0.07 a 7.31,7.31 0 0 0 1,0.46 11.3,11.3 0 0 0 2,0.59 9.61,9.61 0 0 0 3.56,0 8.85,8.85 0 0 0 2,-0.59 7.92,7.92 0 0 0 1.58,-0.81 A 4.32,4.32 0 0 1 23,24.8 c 0.41,0.52 0.9,1.11 0.9,1.11 a 5,5 0 0 0 4.2,-2.08 18.41,18.41 0 0 0 -2,-8 6.81,6.81 0 0 0 -3.84,-1.44 z m -4.74,8.16 a 1.53,1.53 0 1 1 1.4,-1.55 1.47,1.47 0 0 1 -1.4,1.55 z m 5,0 a 1.53,1.53 0 0 1 0,-3 1.53,1.53 0 0 1 0,3 z"
       id="path8" />
    <path
       d="M 29.19,8 H 10.81 A 2.82,2.82 0 0 0 8,10.83 V 29.17 A 2.82,2.82 0 0 0 10.81,32 h 15.55 l -0.72,-2.54 1.75,1.83 1.66,1.53 2.95,2.61 V 10.83 A 2.82,2.82 0 0 0 29.19,8 Z m -5.3,17.91 c 0,0 -0.49,-0.59 -0.9,-1.11 a 4.32,4.32 0 0 0 2.48,-1.63 7.92,7.92 0 0 1 -1.58,0.81 8.85,8.85 0 0 1 -2,0.59 9.61,9.61 0 0 1 -3.56,0 11.3,11.3 0 0 1 -2,-0.59 7.31,7.31 0 0 1 -1,-0.46 L 15.2,23.45 H 15.15 C 14.9,23.31 14.76,23.21 14.76,23.21 a 4.27,4.27 0 0 0 2.4,1.62 l -0.91,1.14 a 5,5 0 0 1 -4.19,-2.08 18.34,18.34 0 0 1 2,-8 6.77,6.77 0 0 1 3.85,-1.44 l 0.14,0.17 a 9.27,9.27 0 0 0 -3.61,1.79 c 0,0 0.3,-0.16 0.81,-0.4 a 10.36,10.36 0 0 1 3.11,-0.86 h 0.24 a 11.59,11.59 0 0 1 2.77,0 11.22,11.22 0 0 1 4.13,1.31 9.16,9.16 0 0 0 -3.42,-1.74 l 0.19,-0.22 a 6.81,6.81 0 0 1 3.86,1.44 18.41,18.41 0 0 1 2,8 5,5 0 0 1 -4.24,1.97 z"
       id="path10" />
    <ellipse
       cx="22.52"
       cy="21.030001"
       rx="1.4"
       ry="1.52"
       id="ellipse12" />
    <path
       d="m 17.52,19.51 a 1.53,1.53 0 1 0 1.4,1.49 1.46,1.46 0 0 0 -1.4,-1.49 z"
       id="path14" />
  </g>
</svg>
